999
"DXF R12 Output" (www.mydxf.blogspot.com)
 0 
SECTION
 2 
HEADER
 9 
$ACADVER
 1 
AC1009
 9 
$EXTMIN
 10 
 0 
 20 
 0 
 9 
$EXTMAX
 10 
 8.5 
 20 
 11 
 0 
ENDSEC
 0 
SECTION
 2 
ENTITIES
0
LINE
8
Layer 1
10
62.309300
20
46.487300
11
1.905000
21
46.487300
0
LINE
8
Layer 1
10
1.905000
20
46.487300
11
1.160859
21
46.338467
0
LINE
8
Layer 1
10
1.160859
20
46.338467
11
0.555625
21
45.931663
0
LINE
8
Layer 1
10
0.555625
20
45.931663
11
0.148828
21
45.326427
0
LINE
8
Layer 1
10
0.148828
20
45.326427
11
0.000000
21
44.582300
0
LINE
8
Layer 1
10
0.000000
20
44.582300
11
0.000000
21
7.911100
0
LINE
8
Layer 1
10
0.000000
20
7.911100
11
0.148828
21
7.166961
0
LINE
8
Layer 1
10
0.148828
20
7.166961
11
0.555625
21
6.561726
0
LINE
8
Layer 1
10
0.555625
20
6.561726
11
1.160859
21
6.154929
0
LINE
8
Layer 1
10
1.160859
20
6.154929
11
1.905000
21
6.006100
0
LINE
8
Layer 1
10
1.905000
20
6.006100
11
47.545600
21
6.006100
0
LINE
8
Layer 1
10
47.545600
20
6.006100
11
47.545600
21
1.164230
0
LINE
8
Layer 1
10
47.545600
20
1.164230
11
47.634070
21
0.718573
0
LINE
8
Layer 1
10
47.634070
20
0.718573
11
47.876329
21
0.357250
0
LINE
8
Layer 1
10
47.876329
20
0.357250
11
48.237651
21
0.114990
0
LINE
8
Layer 1
10
48.237651
20
0.114990
11
48.683310
21
0.026520
0
LINE
8
Layer 1
10
48.683310
20
0.026520
11
59.901600
21
0.026525
0
LINE
8
Layer 1
10
59.901600
20
0.026525
11
60.347257
21
0.114995
0
LINE
8
Layer 1
10
60.347257
20
0.114995
11
60.708580
21
0.357254
0
LINE
8
Layer 1
10
60.708580
20
0.357254
11
60.950840
21
0.718577
0
LINE
8
Layer 1
10
60.950840
20
0.718577
11
61.039310
21
1.164235
0
LINE
8
Layer 1
10
61.039310
20
1.164235
11
61.039300
21
6.006100
0
LINE
8
Layer 1
10
61.039300
20
6.006100
11
62.282800
21
6.006100
0
LINE
8
Layer 1
10
62.282800
20
6.006100
11
63.026939
21
6.154928
0
LINE
8
Layer 1
10
63.026939
20
6.154928
11
63.632174
21
6.561725
0
LINE
8
Layer 1
10
63.632174
20
6.561725
11
64.038971
21
7.166959
0
LINE
8
Layer 1
10
64.038971
20
7.166959
11
64.187800
21
7.911100
0
LINE
8
Layer 1
10
64.187800
20
7.911100
11
64.187800
21
44.582300
0
LINE
8
Layer 1
10
64.187800
20
44.582300
11
64.050575
21
45.326427
0
LINE
8
Layer 1
10
64.050575
20
45.326427
11
63.645450
21
45.931663
0
LINE
8
Layer 1
10
63.645450
20
45.931663
11
63.041875
21
46.338467
0
LINE
8
Layer 1
10
63.041875
20
46.338467
11
62.309300
21
46.487300
0
LINE
8
Layer 1
10
62.309300
20
46.487300
11
62.309300
21
46.487300
0
LINE
8
Layer 1
10
15.054800
20
26.061500
11
14.961782
21
25.447585
0
LINE
8
Layer 1
10
14.961782
20
25.447585
11
14.687691
21
24.999860
0
LINE
8
Layer 1
10
14.687691
20
24.999860
11
14.239966
21
24.725768
0
LINE
8
Layer 1
10
14.239966
20
24.725768
11
13.626050
21
24.632750
0
LINE
8
Layer 1
10
13.626050
20
24.632750
11
6.720410
21
24.632700
0
LINE
8
Layer 1
10
6.720410
20
24.632700
11
6.106494
21
24.725718
0
LINE
8
Layer 1
10
6.106494
20
24.725718
11
5.658770
21
24.999809
0
LINE
8
Layer 1
10
5.658770
20
24.999809
11
5.384678
21
25.447534
0
LINE
8
Layer 1
10
5.384678
20
25.447534
11
5.291660
21
26.061450
0
LINE
8
Layer 1
10
5.291660
20
26.061450
11
5.291660
21
32.146900
0
LINE
8
Layer 1
10
5.291660
20
32.146900
11
5.384678
21
32.760815
0
LINE
8
Layer 1
10
5.384678
20
32.760815
11
5.658769
21
33.208540
0
LINE
8
Layer 1
10
5.658769
20
33.208540
11
6.106494
21
33.482632
0
LINE
8
Layer 1
10
6.106494
20
33.482632
11
6.720410
21
33.575650
0
LINE
8
Layer 1
10
6.720410
20
33.575650
11
13.652500
21
33.575600
0
LINE
8
Layer 1
10
13.652500
20
33.575600
11
14.266415
21
33.482582
0
LINE
8
Layer 1
10
14.266415
20
33.482582
11
14.714140
21
33.208491
0
LINE
8
Layer 1
10
14.714140
20
33.208491
11
14.988232
21
32.760766
0
LINE
8
Layer 1
10
14.988232
20
32.760766
11
15.081250
21
32.146850
0
LINE
8
Layer 1
10
15.081250
20
32.146850
11
15.081200
21
26.061500
0
LINE
8
Layer 1
10
15.081200
20
26.061500
11
15.054800
21
26.061500
 0 
ENDSEC
 0 
EOF