  0
SECTION
  2
HEADER
  9
$ACADVER
  1
AC1006
  9
$EXTMIN
 10
0.000000
 20
0.000000
 30
0.000000
  9
$EXTMAX
 10
506.000000
 20
367.000000
 30
0.000000
  0
ENDSEC
  0
SECTION
  2
ENTITIES
  0
POLYLINE
  8
0
 66
1
 70
1
  0
VERTEX
  8
0
 10
7.604101
 20
364.736974
 42
0.039002
  0
VERTEX
  8
0
 10
5.976040
 20
363.625097
 42
0.026586
  0
VERTEX
  8
0
 10
4.305309
 20
362.128986
 42
0.026860
  0
VERTEX
  8
0
 10
2.839405
 20
360.502824
 42
0.047717
  0
VERTEX
  8
0
 10
1.845007
 20
359.000000
 42
0.116235
  0
VERTEX
  8
0
 10
0.624778
 20
354.371212
 42
0.003945
  0
VERTEX
  8
0
 10
0.275392
 20
335.417449
 42
0.002871
  0
VERTEX
  8
0
 10
0.113513
 20
301.683799
 42
0.000200
  0
VERTEX
  8
0
 10
0.240906
 20
206.823204
 42
0.000175
  0
VERTEX
  8
0
 10
0.447936
 20
107.855641
 42
0.003221
  0
VERTEX
  8
0
 10
0.726585
 20
76.486832
 42
0.004989
  0
VERTEX
  8
0
 10
1.159770
 20
59.369799
 42
0.152688
  0
VERTEX
  8
0
 10
2.561789
 20
55.384992
 42
0.022572
  0
VERTEX
  8
0
 10
3.550921
 20
54.177917
 42
0.013445
  0
VERTEX
  8
0
 10
4.829097
 20
52.829093
 42
0.013445
  0
VERTEX
  8
0
 10
6.177925
 20
51.550920
 42
0.022572
  0
VERTEX
  8
0
 10
7.385007
 20
50.561789
 42
0.000000
  0
VERTEX
  8
0
 10
10.146436
 20
48.500000
 42
0.000000
  0
VERTEX
  8
0
 10
192.073218
 20
48.239378
 42
0.000000
  0
VERTEX
  8
0
 10
374.000000
 20
47.978756
 42
0.000000
  0
VERTEX
  8
0
 10
374.000000
 20
27.545142
 42
0.001759
  0
VERTEX
  8
0
 10
374.046836
 20
14.231320
 42
0.024116
  0
VERTEX
  8
0
 10
374.313855
 20
9.403960
 42
0.069927
  0
VERTEX
  8
0
 10
375.003482
 20
6.623336
 42
0.082092
  0
VERTEX
  8
0
 10
376.413416
 20
4.305764
 42
0.000000
  0
VERTEX
  8
0
 10
378.826833
 20
1.500000
 42
0.000000
  0
VERTEX
  8
0
 10
427.000000
 20
1.500000
 42
0.000000
  0
VERTEX
  8
0
 10
475.173167
 20
1.500000
 42
0.000000
  0
VERTEX
  8
0
 10
477.586584
 20
4.305764
 42
0.081820
  0
VERTEX
  8
0
 10
478.996025
 20
6.619711
 42
0.070067
  0
VERTEX
  8
0
 10
479.685774
 20
9.391320
 42
0.024231
  0
VERTEX
  8
0
 10
479.953037
 20
14.197469
 42
0.001775
  0
VERTEX
  8
0
 10
480.000000
 20
27.427278
 42
0.000000
  0
VERTEX
  8
0
 10
480.000000
 20
47.743029
 42
0.000000
  0
VERTEX
  8
0
 10
487.851296
 20
48.197534
 42
0.032244
  0
VERTEX
  8
0
 10
493.721652
 20
48.919025
 42
0.071527
  0
VERTEX
  8
0
 10
497.977679
 20
50.374761
 42
0.085446
  0
VERTEX
  8
0
 10
501.175433
 20
52.769848
 42
0.064303
  0
VERTEX
  8
0
 10
503.765089
 20
56.328838
 42
0.120064
  0
VERTEX
  8
0
 10
504.890405
 20
60.531559
 42
0.002803
  0
VERTEX
  8
0
 10
505.241750
 20
81.159168
 42
0.002636
  0
VERTEX
  8
0
 10
505.459598
 20
116.561424
 42
0.000220
  0
VERTEX
  8
0
 10
505.500000
 20
208.176670
 42
0.000173
  0
VERTEX
  8
0
 10
505.465628
 20
307.311091
 42
0.003230
  0
VERTEX
  8
0
 10
505.241890
 20
338.586570
 42
0.005051
  0
VERTEX
  8
0
 10
504.837653
 20
355.627963
 42
0.153056
  0
VERTEX
  8
0
 10
503.438211
 20
359.614881
 42
0.022575
  0
VERTEX
  8
0
 10
502.449074
 20
360.822005
 42
0.013446
  0
VERTEX
  8
0
 10
501.170885
 20
362.170870
 42
0.013446
  0
VERTEX
  8
0
 10
499.822036
 20
363.449071
 42
0.022575
  0
VERTEX
  8
0
 10
498.614931
 20
364.438211
 42
0.000000
  0
VERTEX
  8
0
 10
495.853439
 20
366.500000
 42
0.000000
  0
VERTEX
  8
0
 10
253.676719
 20
366.736974
 42
0.000000
  0
VERTEX
  8
0
 10
11.500000
 20
366.973948
 42
0.000000
  0
SEQEND
  0
POLYLINE
  8
0
 66
1
 70
1
  0
VERTEX
  8
0
 10
122.365141
 20
254.927420
 42
0.000000
  0
VERTEX
  8
0
 10
125.000000
 20
252.854840
 42
0.000000
  0
VERTEX
  8
0
 10
125.000000
 20
231.427420
 42
-0.001834
  0
VERTEX
  8
0
 10
124.951645
 20
218.246836
 42
-0.019459
  0
VERTEX
  8
0
 10
124.703331
 20
212.881758
 42
-0.051377
  0
VERTEX
  8
0
 10
124.137987
 20
209.907328
 42
-0.124362
  0
VERTEX
  8
0
 10
123.000000
 20
208.000000
 42
-0.142735
  0
VERTEX
  8
0
 10
120.860970
 20
206.826320
 42
-0.039070
  0
VERTEX
  8
0
 10
117.011737
 20
206.283144
 42
-0.014376
  0
VERTEX
  8
0
 10
109.828720
 20
206.043589
 42
-0.001147
  0
VERTEX
  8
0
 10
90.828741
 20
206.000000
 42
-0.001425
  0
VERTEX
  8
0
 10
73.423689
 20
206.049593
 42
-0.011494
  0
VERTEX
  8
0
 10
65.433211
 20
206.278866
 42
-0.021514
  0
VERTEX
  8
0
 10
60.843357
 20
206.714802
 42
-0.150585
  0
VERTEX
  8
0
 10
58.828741
 20
207.654988
 42
-0.148449
  0
VERTEX
  8
0
 10
57.799031
 20
209.370905
 42
-0.041886
  0
VERTEX
  8
0
 10
57.290221
 20
212.483794
 42
-0.017652
  0
VERTEX
  8
0
 10
57.049596
 20
218.076692
 42
-0.001924
  0
VERTEX
  8
0
 10
57.000000
 20
230.963858
 42
-0.003501
  0
VERTEX
  8
0
 10
57.101416
 20
245.446084
 42
-0.035651
  0
VERTEX
  8
0
 10
57.613017
 20
251.430834
 42
-0.103398
  0
VERTEX
  8
0
 10
58.796697
 20
254.550804
 42
-0.166225
  0
VERTEX
  8
0
 10
61.000000
 20
256.306019
 42
-0.080024
  0
VERTEX
  8
0
 10
62.176520
 20
256.524411
 42
-0.000852
  0
VERTEX
  8
0
 10
70.465073
 20
256.707821
 42
-0.002679
  0
VERTEX
  8
0
 10
80.039291
 20
256.852036
 42
-0.001736
  0
VERTEX
  8
0
 10
91.115141
 20
256.921053
 42
-0.001238
  0
VERTEX
  8
0
 10
109.227522
 20
256.926172
 42
-0.015380
  0
VERTEX
  8
0
 10
116.102306
 20
256.699553
 42
-0.042869
  0
VERTEX
  8
0
 10
119.878146
 20
256.131226
 42
-0.108279
  0
SEQEND
  0
ENDSEC
  0
EOF
